# AST/ASF file generated using VICON BodyLanguage
# -----------------------------------------------
:version 1.10
:name VICON
:units
  mass 1.0
  length 0.45
  angle deg
:documentation
   .ast/.asf automatically generated from VICON data using
   VICON BodyBuilder and BodyLanguage model FoxedUp or BRILLIANT.MOD
:root
   order TX TY TZ RX RY RZ
   axis XYZ
   position 0 0 0  
   orientation 0 0 0 
:bonedata
  begin
     id 1 
     name lhipjoint
     direction 0.707368 -0.647095 0.284426 
     length 2.60678 
     axis 0 0 0  XYZ
  end
  begin
     id 2 
     name lfemur
     direction 0.34202 -0.939693 0  
     length 6.63812  
     axis 0 0 20  XYZ
    dof rx ry rz
    limits (-160.0 20.0)
           (-70.0 70.0)
           (-60.0 70.0)
  end
  begin
     id 3 
     name ltibia
     direction 0.34202 -0.939693 0   
     length 7.51178   
     axis 0 0 20   XYZ
    dof rx
    limits (-10.0 170.0)
  end
  begin
     id 4 
     name lfoot
     direction 0.121251 -0.333133 0.935051   
     length 1.83716   
     axis -90 7.62852e-016 20   XYZ
    dof rx rz
    limits (-45.0 90.0)
           (-70.0 20.0)
  end
  begin
     id 5 
     name ltoes
     direction 1.53611e-011 -4.21962e-011 1   
     length 0.916133   
     axis -90 7.62852e-016 20   XYZ
    dof rx
    limits (-90.0 20.0)
  end
  begin
     id 6 
     name rhipjoint
     direction -0.692419 -0.660507 0.290321   
     length 2.55385  
     axis 0 0 0  XYZ 
  end
  begin
     id 7 
     name rfemur
     direction -0.34202 -0.939693 0   
     length 7.29079   
     axis 0 0 -20   XYZ
    dof rx ry rz
    limits (-160.0 20.0)
           (-70.0 70.0)
           (-70.0 60.0)
  end
  begin
     id 8 
     name rtibia
     direction -0.34202 -0.939693 0   
     length 7.47143   
     axis 0 0 -20   XYZ
    dof rx
    limits (-10.0 170.0)
 end
 begin
     id 9 
     name rfoot
     direction -0.119907 -0.329441 0.936532   
     length 1.79439  
     axis -90 -7.62852e-016 -20   XYZ
    dof rx rz
    limits (-45.0 90.0)
           (-20.0 70.0)
  end
  begin
     id 10 
     name rtoes
     direction -1.53571e-011 -4.21961e-011 1   
     length 0.896039   
     axis -90 -7.62852e-016 -20   XYZ
    dof rx
    limits (-90.0 20.0)
  end
  begin
     id 11 
     name lowerback
     direction 0.0367721 0.992912 -0.113016   
     length 1.73542   
     axis 0 0 0   XYZ
    dof rx ry rz
    limits (-20.0 45.0)
           (-30.0 30.0)
           (-30.0 30.0)
  end
  begin
     id 12 
     name upperback
     direction -0.000314626 0.990678 0.136227   
     length 1.7514   
     axis 0 0 0   XYZ
    dof rx ry rz
    limits (-20.0 45.0)
           (-30.0 30.0)
           (-30.0 30.0)
  end
  begin
     id 13 
     name thorax
     direction -0.0226159 0.981151 0.191917   
     length 1.71471   
     axis 0 0 0   XYZ
    dof rx ry rz
    limits (-20.0 45.0)
           (-30.0 30.0)
           (-30.0 30.0)
  end
  begin
     id 14 
     name lowerneck
     direction 0.0219333 0.998071 0.0580739   
     length 1.65882   
     axis 0 0 0   XYZ
    dof rx ry rz
    limits (-20.0 45.0)
           (-30.0 30.0)
           (-30.0 30.0)
  end
  begin
     id 15 
     name upperneck
     direction 0.0384529 0.980058 -0.194957   
     length 1.6612   
     axis 0 0 0   XYZ
    dof rx ry rz
    limits (-20.0 45.0)
           (-30.0 30.0)
           (-30.0 30.0)
  end
  begin
     id 16
     name head
     direction 0.00592123 0.997421 -0.0715234  
     length 1.68077  
     axis 0 0 0   XYZ
    dof rx ry rz
    limits (-20.0 45.0)
           (-30.0 30.0)
           (-30.0 30.0)
  end
  begin
     id 17 
     name lclavicle
     direction 0.904803 0.417826 0.0821728  
     length 3.42227  
     axis 0 0 0   XYZ
    dof ry rz
    limits (-20.0 10.0)
           (0.0 20.0)
  end
  begin
     id 18 
     name lhumerus
     direction 1 -4.48965e-011 -2.68786e-027   
     length 5.11878   
     axis -180 -30 -90   XYZ
    dof rx ry rz
    limits (-60.0 90.0)
           (-90.0 90.0)
           (-90.0 90.0)
  end
  begin
     id 19
     name lradius
     direction 1 -4.48965e-011 2.61168e-028   
     length 3.59971   
     axis -180 -30 -90   XYZ
    dof rx
    limits (-10.0 170.0)
  end
  begin
     id 20
     name lwrist
     direction 1 -4.48965e-011 1.58672e-027   
     length 1.79985   
     axis -1.65735e-015 90 90   XYZ
    dof ry
    limits (-180.0 0.0)
 end
  begin
     id 21 
     name lhand
     direction 1 -4.48942e-011 3.17344e-027   
     length 0.62877   
     axis -2.02492e-015 90 90   XYZ
    dof rx rz
    limits (-90.0 90.0)
           (-45.0 45.0)
  end
  begin
     id 22 
     name lfingers
     direction 1 -4.49011e-011 6.34687e-027   
     length 0.506931   
     axis -4.04985e-015 90 90   XYZ
    dof rx
    limits (0.0 90.0)
  end
  begin
     id 23
     name lthumb
     direction 0.707107 -6.34982e-011 0.707107   
     length 0.727854   
     axis -90 45 2.85299e-015   XYZ
    dof rx rz
    limits (-45.0 45.0)
           (-45.0 45.0)
  end
  begin
     id 24 
     name rclavicle
     direction -0.945647 0.32488 0.0143075   
     length 3.52737  
     axis 0 0 0   XYZ 
    dof ry rz
    limits (-10.0 20.0)
           (-20.0 0.0)
  end
  begin
     id 25 
     name rhumerus
     direction -1 -4.48962e-011 1.92182e-027  
     length 5.4902   
     axis -180 30 90   XYZ
    dof rx ry rz
    limits (-90.0 60.0)
           (-90.0 90.0)
           (-90.0 90.0)
  end
  begin
     id 26 
     name rradius
     direction -1 -4.48967e-011 -5.97193e-028   
     length 3.20659   
     axis -180 30 90   XYZ
    dof rx
    limits (-10.0 170.0)
  end
  begin
     id 27 
     name rwrist
     direction -1 -4.48964e-011 1.58672e-027   
     length 1.6033   
     axis -1.65735e-015 -90 -90   XYZ
    dof ry
    limits (-180.0 0.0)
  end
  begin
     id 28
     name rhand
     direction -1 -4.49006e-011 3.17344e-027   
     length 0.691885   
     axis -2.02492e-015 -90 -90   XYZ
    dof rx rz
    limits (-90.0 90.0)
           (-45.0 45.0)
  end
  begin
     id 29
     name rfingers
     direction -1 -4.48908e-011 6.34687e-027   
     length 0.557815   
     axis -4.04985e-015 -90 -90   XYZ
    dof rx
    limits (0.0 90.0)
  end
  begin
     id 30
     name rthumb
     direction -0.707107 -6.34999e-011 0.707107   
     length 0.800915   
     axis -90 -45 -2.85299e-015   XYZ
    dof rx rz
    limits (-45.0 45.0)
           (-45.0 45.0)
  end
:hierarchy
  begin
    root lhipjoint rhipjoint lowerback
    lhipjoint lfemur
    lfemur ltibia
    ltibia lfoot
    lfoot ltoes
    rhipjoint rfemur
    rfemur rtibia
    rtibia rfoot
    rfoot rtoes
    lowerback upperback
    upperback thorax
    thorax lowerneck lclavicle rclavicle
    lowerneck upperneck
    upperneck head
    lclavicle lhumerus
    lhumerus lradius
    lradius lwrist
    lwrist lhand lthumb
    lhand lfingers
    rclavicle rhumerus
    rhumerus rradius
    rradius rwrist
    rwrist rhand rthumb
    rhand rfingers
  end

#!OML:ASF I:\Actors\actors\Patient Classification 1\Patient 1\Session 1\Subject1.ASF
:FULLY-SPECIFIED
:DEGREES
39
root 0.813072 17.4129 9.41447 10.2219 -3.75108 -10.352
lowerback -1.52981 0.223142 6.69131
upperback -9.71138 0.767682 3.05437
thorax -9.41736 -0.0237416 -0.526957
lowerneck -0.844485 -14.2502 -13.323
upperneck 17.7623 -20.8987 10.7656
head 8.1859 -10.2625 3.69109
rclavicle 1.71452e-015 -3.12092e-014
rhumerus -44.555 -25.4918 -68.654
rradius 22.6063
rwrist 47.9456
rhand 3.69631 -31.7332
rfingers 7.12502
rthumb 29.1257 -59.4753
lclavicle 1.71452e-015 -3.12092e-014
lhumerus -47.4933 32.3013 65.2082
lradius 21.8639
lwrist -32.1424
lhand -14.7118 -8.18584
lfingers 7.12502
lthumb 11.4427 21.4819
rfemur -5.07939 26.0822 26.1588
rtibia 2.58679
rfoot -10.4565 -22.5743
rtoes 2.90631
lfemur 5.32684 -41.2095 -11.3737
ltibia -4.52273
lfoot -19.9322 51.4376
ltoes 10.5867
40
root 0.814033 17.4129 9.41394 10.2004 -3.71086 -10.3723
lowerback -1.51043 0.231941 6.7392
upperback -9.7184 0.783691 3.05102
thorax -9.43635 -0.0204244 -0.557856
lowerneck -0.835611 -14.2306 -13.4108
upperneck 17.7853 -20.8955 10.8851
head 8.21501 -10.2581 3.74084
rclavicle -5.8393e-015 5.36719e-015
rhumerus -44.5604 -25.4912 -68.6667
rradius 22.6569
rwrist 47.9088
rhand 3.63078 -31.7693
rfingers 7.12502
rthumb 29.0631 -59.5222
lclavicle -5.8393e-015 5.36719e-015
lhumerus -47.4399 32.2315 65.321
lradius 21.8749
lwrist -32.0645
lhand -14.4729 -8.22562
lfingers 7.12502
lthumb 11.6731 21.4292
rfemur -5.04941 26.0555 26.1948
rtibia 2.5777
rfoot -10.433 -22.5906
rtoes 2.82809
lfemur 5.32251 -41.1709 -11.3489
ltibia -4.51254
lfoot -19.9083 51.3818
ltoes 10.5826
41
root 0.814561 17.4128 9.41383 10.1637 -3.64989 -10.4146
lowerback -1.49222 0.234791 6.79892
upperback -9.71757 0.792026 3.05339
thorax -9.44646 -0.0212001 -0.588845
lowerneck -0.783944 -14.2117 -13.4145
upperneck 17.748 -20.8774 10.923
head 8.19573 -10.2502 3.76094
rclavicle -1.2424e-015 -2.04748e-014
rhumerus -44.5327 -25.4393 -68.7279
rradius 22.7023
rwrist 47.8098
rhand 3.60565 -31.7406
rfingers 7.12502
rthumb 29.0391 -59.4976
lclavicle -1.2424e-015 -2.04748e-014
lhumerus -47.3914 32.1102 65.4569
lradius 21.9169
lwrist -31.9358
lhand -14.1813 -8.19968
lfingers 7.12502
lthumb 11.9543 21.439
rfemur -5.00444 26.0061 26.2684
rtibia 2.59865
rfoot -10.4522 -22.5876
rtoes 2.98172
lfemur 5.34119 -41.1402 -11.3087
ltibia -4.51195
lfoot -19.9106 51.3167
ltoes 10.715
42
root 0.814365 17.4125 9.41328 10.1365 -3.59729 -10.4842
lowerback -1.46359 0.228502 6.84551
upperback -9.72013 0.790529 3.07982
thorax -9.46756 -0.0248882 -0.586202
lowerneck -0.764414 -14.1932 -13.4523
upperneck 17.7745 -20.8639 10.9664
head 8.20856 -10.2436 3.78267
rclavicle 7.97623e-015 9.93923e-016
rhumerus -44.4788 -25.3073 -68.8489
rradius 22.7673
rwrist 47.637
rhand 3.657 -31.7477
rfingers 7.12502
rthumb 29.0882 -59.4962
lclavicle 7.97623e-015 9.93923e-016
lhumerus -47.391 32.0691 65.5128
lradius 21.9368
lwrist -31.8992
lhand -13.9904 -8.14328
lfingers 7.12502
lthumb 12.1384 21.4846
rfemur -4.98425 25.9137 26.3673
rtibia 2.63081
rfoot -10.4598 -22.5151
rtoes 3.21223
lfemur 5.35884 -41.0997 -11.2229
ltibia -4.52928
lfoot -19.7331 51.2675
ltoes 10.5753
43
root 0.813337 17.4119 9.41216 10.1183 -3.55463 -10.5517
lowerback -1.42453 0.224882 6.87773
upperback -9.72177 0.792998 3.10519
thorax -9.4934 -0.0256165 -0.577015
lowerneck -0.874909 -14.2169 -13.4791
upperneck 17.9099 -20.8988 10.9539
head 8.27969 -10.2552 3.76544
rclavicle -9.19379e-015 -4.17448e-015
rhumerus -44.4384 -25.1997 -68.9627
rradius 22.8388
rwrist 47.5364
rhand 3.72563 -31.728
rfingers 7.12502
rthumb 29.1537 -59.4652
lclavicle -9.19379e-015 -4.17448e-015
lhumerus -47.4036 32.153 65.4721
lradius 21.8875
lwrist -31.9886
lhand -13.9709 -8.16126
lfingers 7.12502
lthumb 12.1572 21.4655
rfemur -4.9695 25.8694 26.464
rtibia 2.65013
rfoot -10.4342 -22.5071
rtoes 3.12738
lfemur 5.35103 -41.0215 -11.1134
ltibia -4.55139
lfoot -19.4065 51.2139
ltoes 10.1318
44
root 0.811651 17.4114 9.41238 10.1032 -3.49834 -10.5854
lowerback -1.42457 0.221154 6.88607
upperback -9.71283 0.788246 3.10927
thorax -9.48372 -0.0279376 -0.577156
lowerneck -0.938786 -14.2568 -13.4584
upperneck 17.9478 -20.9521 10.9421
head 8.30711 -10.2762 3.74513
rclavicle 7.15625e-015 -2.0276e-014
rhumerus -44.4258 -25.2638 -68.9657
rradius 22.835
rwrist 47.7256
rhand 3.74708 -31.5638
rfingers 7.12502
rthumb 29.1742 -59.2975
lclavicle 7.15625e-015 -2.0276e-014
lhumerus -47.4103 32.2496 65.4218
lradius 21.8358
lwrist -32.0704
lhand -14.1225 -8.21151
lfingers 7.12502
lthumb 12.011 21.4238
rfemur -4.93276 25.8754 26.5309
rtibia 2.63532
rfoot -10.3741 -22.5824
rtoes 2.81322
lfemur 5.3311 -40.9752 -11.0429
ltibia -4.55381
lfoot -19.2371 51.1542
ltoes 9.85723
45
root 0.810293 17.4115 9.414 10.0808 -3.44024 -10.625
lowerback -1.44015 0.22115 6.92364
upperback -9.70415 0.787479 3.10488
thorax -9.46505 -0.0308946 -0.602725
lowerneck -0.873633 -14.2685 -13.4585
upperneck 17.8656 -20.9793 11.0071
head 8.27908 -10.2889 3.76847
rclavicle 2.52457e-014 -3.51849e-014
rhumerus -44.4393 -25.4411 -68.8851
rradius 22.7577
rwrist 48.0794
rhand 3.73227 -31.4136
rfingers 7.12502
rthumb 29.1601 -59.1497
lclavicle 2.52457e-014 -3.51849e-014
lhumerus -47.4406 32.307 65.3665
lradius 21.8156
lwrist -32.1079
lhand -14.249 -8.14472
lfingers 7.12502
lthumb 11.889 21.4977
rfemur -4.86916 25.875 26.6084
rtibia 2.59119
rfoot -10.3577 -22.6352
rtoes 2.6878
lfemur 5.34988 -40.9615 -10.995
ltibia -4.556
lfoot -19.2019 51.0927
ltoes 9.82296
46
root 0.809098 17.4121 9.41418 10.0536 -3.38094 -10.6832
lowerback -1.42613 0.226719 6.98694
upperback -9.69835 0.798472 3.10092
thorax -9.4668 -0.0306894 -0.642725
lowerneck -0.884019 -14.2957 -13.4263
upperneck 17.8573 -21.0187 11.0112
head 8.28025 -10.3049 3.75908
rclavicle 2.03754e-015 2.42517e-014
rhumerus -44.4147 -25.501 -68.9125
rradius 22.7016
rwrist 48.1741
rhand 3.70549 -31.4293
rfingers 7.12502
rthumb 29.1345 -59.1698
lclavicle 2.03754e-015 2.42517e-014
lhumerus -47.48 32.3559 65.2939
lradius 21.8095
lwrist -32.1332
lhand -14.2574 -8.13373
lfingers 7.12502
lthumb 11.8809 21.5092
rfemur -4.81282 25.877 26.7058
rtibia 2.56776
rfoot -10.3945 -22.6905
rtoes 2.7271
lfemur 5.34746 -40.8791 -10.8995
ltibia -4.557
lfoot -19.107 50.9725
ltoes 9.74596
47
root 0.807986 17.4121 9.4137 10.0288 -3.32139 -10.7248
lowerback -1.39848 0.230515 7.02417
upperback -9.68998 0.807318 3.0971
thorax -9.47359 -0.0294835 -0.668115
lowerneck -0.898174 -14.3138 -13.3606
upperneck 17.8278 -21.0385 10.9918
head 8.26575 -10.3114 3.74099
rclavicle -1.54058e-015 -1.2921e-014
rhumerus -44.3461 -25.4361 -69.0546
rradius 22.6985
rwrist 48.0354
rhand 3.64898 -31.4963
rfingers 7.12502
rthumb 29.0805 -59.2462
lclavicle -1.54058e-015 -1.2921e-014
lhumerus -47.4657 32.2764 65.347
lradius 21.8311
lwrist -31.9856
lhand -14.3139 -8.27242
lfingers 7.12502
lthumb 11.8264 21.3736
rfemur -4.76759 25.9013 26.7827
rtibia 2.56388
rfoot -10.412 -22.757
rtoes 2.86449
lfemur 5.33591 -40.8102 -10.8177
ltibia -4.56857
lfoot -18.9601 50.8797
ltoes 9.56677
48
root 0.80702 17.4116 9.41387 10.0056 -3.26573 -10.7503
lowerback -1.37891 0.235788 7.04683
upperback -9.68227 0.816978 3.09552
thorax -9.47611 -0.0264742 -0.68313
lowerneck -0.835871 -14.2924 -13.3699
upperneck 17.7455 -21.0159 11.0521
head 8.23212 -10.3013 3.7713
rclavicle 6.06293e-015 2.62396e-014
rhumerus -44.3117 -25.4249 -69.1347
rradius 22.6889
rwrist 47.9995
rhand 3.57397 -31.4836
rfingers 7.12502
rthumb 29.0089 -59.2458
lclavicle 6.06293e-015 2.62396e-014
lhumerus -47.3938 32.0171 65.5744
lradius 21.8929
lwrist -31.6396
lhand -14.4805 -8.36691
lfingers 7.12502
lthumb 11.6657 21.2883
rfemur -4.72695 25.8877 26.8396
rtibia 2.5646
rfoot -10.439 -22.7639
rtoes 2.95354
lfemur 5.33818 -40.7668 -10.7687
ltibia -4.58623
lfoot -18.8644 50.8057
ltoes 9.47311
49
root 0.806308 17.4113 9.41315 9.98683 -3.22312 -10.8108
lowerback -1.36714 0.234291 7.09329
upperback -9.66653 0.818846 3.11842
thorax -9.46618 -0.0275896 -0.68479
lowerneck -0.806422 -14.2743 -13.4133
upperneck 17.702 -20.9957 11.1045
head 8.22053 -10.2928 3.79963
rclavicle 7.65321e-015 -7.35503e-015
rhumerus -44.253 -25.4177 -69.2031
rradius 22.6383
rwrist 48.0383
rhand 3.51497 -31.4773
rfingers 7.12502
rthumb 28.9525 -59.2492
lclavicle 7.65321e-015 -7.35503e-015
lhumerus -47.3525 31.8391 65.7448
lradius 21.9444
lwrist -31.3959
lhand -14.6886 -8.3533
lfingers 7.12502
lthumb 11.4651 21.3132
rfemur -4.70984 25.8208 26.9274
rtibia 2.57607
rfoot -10.4376 -22.719
rtoes 2.87967
lfemur 5.31133 -40.6684 -10.6588
ltibia -4.57787
lfoot -18.8178 50.6803
ltoes 9.4791
